# xmcd
#
# Track frame offsets: 
#        150
#        16202
#        30236
#        45672
#        62036
#        77186
#        93398
#        104992
#        121760
#        135845
#        149980
#        164697
#        178347
#        196893
#        211525
#        222082
#        241801
#        257407
#        270823
#        293786
#
# Disc length: 4107 seconds
#
# Revision: 0
# Processed by: cddbd v1.5.1PL0 Copyright (c) Steve Scherf et al.
# Submitted via: ExactAudioCopy v0.90b4
#
DISCID=19100914
DTITLE=Bruno and Marrone - Dose Dupla
DYEAR=1900
DGENRE=Sertanejo
TTITLE0=Acorrentado Em Você
TTITLE1=Apenas Um Sorriso
TTITLE2=Tá Combinado Assim
TTITLE3=Te Amo E Não Te Quero
TTITLE4=Qual É A Sua
TTITLE5=Me Deixa Entrar
TTITLE6=O Campeão
TTITLE7=Seu Coração Machuca O Meu
TTITLE8=Rei Do Rodeio
TTITLE9=O Que A Saudade Faz
TTITLE10=Favo De Mel
TTITLE11=Tô Machucado
TTITLE12=Fruto Especial
TTITLE13=Amor Nao É Jogo De Azar
TTITLE14=Volta Pra Mim
TTITLE15=Faz De Conta
TTITLE16=Não Faz Isso Não
TTITLE17=Goiás É Mais
TTITLE18=Pago Calado
TTITLE19=Mato A Cobra E Mostro O Pau
EXTD=
EXTT0=
EXTT1=
EXTT2=
EXTT3=
EXTT4=
EXTT5=
EXTT6=
EXTT7=
EXTT8=
EXTT9=
EXTT10=
EXTT11=
EXTT12=
EXTT13=
EXTT14=
EXTT15=
EXTT16=
EXTT17=
EXTT18=
EXTT19=
PLAYORDER=
